ffmpeg started on 2025-05-12 at 20:44:41
Report written to "D:\Convert\FFMetrics\reports\psnr_report-6.txt"
Log level: 32
Command line:
ffmpeg -hide_banner -nostdin -i "G:\\\xc0\xed\xe8\xec\xe5\\\xce\xed\xe3\xee\xe8\xed\xe3\xe8\\!_35_\xcb\xe5\xf2\xee_2024\\DreamCast-1\\\xcf\xf0\xe8\xea\xeb\xfe\xf7\xe5\xed\xe8\xff \xe2 \xe4\xf0\xf3\xe3\xee\xec \xec\xe8\xf0\xe5 - \xc2\xee\xf1\xef\xe8\xf2\xfb\xe2\xe0\xf2\xfc \xe4\xe5\xf2\xe5\xe9 \xe1\xf3\xe4\xf3\xf7\xe8 \xe0\xe2\xe0\xed\xf2\xfe\xf0\xe8\xf1\xf2\xee\xec\\[DC] Iseyuru - 05_Telegram_HEVC.mkv" -i "G:\\\xc0\xed\xe8\xec\xe5\\\xce\xed\xe3\xee\xe8\xed\xe3\xe8\\!_35_\xcb\xe5\xf2\xee_2024\\DreamCast-1\\\xcf\xf0\xe8\xea\xeb\xfe\xf7\xe5\xed\xe8\xff \xe2 \xe4\xf0\xf3\xe3\xee\xec \xec\xe8\xf0\xe5 - \xc2\xee\xf1\xef\xe8\xf2\xfb\xe2\xe0\xf2\xfc \xe4\xe5\xf2\xe5\xe9 \xe1\xf3\xe4\xf3\xf7\xe8 \xe0\xe2\xe0\xed\xf2\xfe\xf0\xe8\xf1\xf2\xee\xec\\[DC] Iseyuru - 05_Telegram.mp4" -lavfi "[0:v]settb=AVTB,setpts=PTS-STARTPTS,format=pix_fmts=yuv420p10,fps=24000/1001,scale=1920:1080:flags=bicubic[main];[1:v]settb=AVTB,setpts=PTS-STARTPTS,format=pix_fmts=yuv420p,fps=24000/1001,scale=1920:1080:flags=bicubic[ref];[main][ref]psnr=eof_action=endall:stats_file='D\\:/Convert/FFMetrics/logs/psnr_logfile-6.txt'" -f null -
Input #0, matroska,webm, from 'G:\Аниме\Онгоинги\!_35_Лето_2024\DreamCast-1\Приключения в другом мире - Воспитывать детей будучи авантюристом\[DC] Iseyuru - 05_Telegram_HEVC.mkv':
  Metadata:
    COMPATIBLE_BRANDS: isomiso2avc1mp41
    MAJOR_BRAND     : isom
    MINOR_VERSION   : 512
    ENCODER         : Lavf61.7.100
  Duration: 00:23:56.72, start: -0.021000, bitrate: 919 kb/s
  Stream #0:0: Video: hevc (Main 10), yuv420p10le(tv, bt709, progressive), 1920x1080 [SAR 1:1 DAR 16:9], 23.98 fps, 23.98 tbr, 1k tbn (default)
      Metadata:
        HANDLER_NAME    : VideoHandler
        VENDOR_ID       : [0][0][0][0]
        ENCODER         : Lavc61.19.100 libx265
        BPS             : 722052
        DURATION        : 00:23:56.601708333
        NUMBER_OF_FRAMES: 34444
        NUMBER_OF_BYTES : 129662604
        _STATISTICS_WRITING_APP: mkvpropedit v66.0.0 ('Josie') 64-bit
        _STATISTICS_WRITING_DATE_UTC: 2025-05-10 13:17:22
        _STATISTICS_TAGS: BPS DURATION NUMBER_OF_FRAMES NUMBER_OF_BYTES
  Stream #0:1: Audio: aac (LC), 48000 Hz, stereo, fltp (default)
      Metadata:
        HANDLER_NAME    : SoundHandler
        VENDOR_ID       : [0][0][0][0]
        ENCODER         : Lavc61.19.100 aac
        BPS             : 193675
        DURATION        : 00:23:56.714000000
        NUMBER_OF_FRAMES: 67347
        NUMBER_OF_BYTES : 34782053
        _STATISTICS_WRITING_APP: mkvpropedit v66.0.0 ('Josie') 64-bit
        _STATISTICS_WRITING_DATE_UTC: 2025-05-10 13:17:22
        _STATISTICS_TAGS: BPS DURATION NUMBER_OF_FRAMES NUMBER_OF_BYTES
Input #1, mov,mp4,m4a,3gp,3g2,mj2, from 'G:\Аниме\Онгоинги\!_35_Лето_2024\DreamCast-1\Приключения в другом мире - Воспитывать детей будучи авантюристом\[DC] Iseyuru - 05_Telegram.mp4':
  Metadata:
    major_brand     : isom
    minor_version   : 512
    compatible_brands: isomiso2avc1mp41
    encoder         : Lavf61.1.100
  Duration: 00:23:56.67, start: 0.000000, bitrate: 3480 kb/s
  Stream #1:0[0x1](und): Video: h264 (High) (avc1 / 0x31637661), yuv420p(tv, bt709, progressive), 1920x1080 [SAR 1:1 DAR 16:9], 3332 kb/s, 23.98 fps, 23.98 tbr, 24k tbn (default)
      Metadata:
        handler_name    : VideoHandler
        vendor_id       : [0][0][0][0]
        encoder         : Lavc61.3.100 h264_qsv
  Stream #1:1[0x2](und): Audio: aac (HE-AACv2) (mp4a / 0x6134706D), 48000 Hz, stereo, fltp, 144 kb/s (default)
      Metadata:
        handler_name    : SoundHandler
        vendor_id       : [0][0][0][0]
Stream mapping:
  Stream #0:0 (hevc) -> settb:default
  Stream #1:0 (h264) -> settb:default
  psnr:default -> Stream #0:0 (wrapped_avframe)
  Stream #0:1 -> #0:1 (aac (native) -> pcm_s16le (native))
Output #0, null, to 'pipe:':
  Metadata:
    COMPATIBLE_BRANDS: isomiso2avc1mp41
    MAJOR_BRAND     : isom
    MINOR_VERSION   : 512
    encoder         : Lavf61.7.100
  Stream #0:0: Video: wrapped_avframe, yuv420p10le(tv, bt709, progressive), 1920x1080 [SAR 1:1 DAR 16:9], q=2-31, 200 kb/s, 23.98 fps, 23.98 tbn
      Metadata:
        encoder         : Lavc61.19.100 wrapped_avframe
  Stream #0:1: Audio: pcm_s16le, 48000 Hz, stereo, s16, 1536 kb/s (default)
      Metadata:
        HANDLER_NAME    : SoundHandler
        VENDOR_ID       : [0][0][0][0]
        _STATISTICS_TAGS: BPS DURATION NUMBER_OF_FRAMES NUMBER_OF_BYTES
        BPS             : 193675
        DURATION        : 00:23:56.714000000
        NUMBER_OF_FRAMES: 67347
        NUMBER_OF_BYTES : 34782053
        _STATISTICS_WRITING_APP: mkvpropedit v66.0.0 ('Josie') 64-bit
        _STATISTICS_WRITING_DATE_UTC: 2025-05-10 13:17:22
        encoder         : Lavc61.19.100 pcm_s16le
frame=  174 fps=0.0 q=-0.0 size=N/A time=00:00:07.25 bitrate=N/A speed=14.2x    frame=  408 fps=401 q=-0.0 size=N/A time=00:00:17.01 bitrate=N/A speed=16.7x    frame=  644 fps=417 q=-0.0 size=N/A time=00:00:26.86 bitrate=N/A speed=17.4x    frame=  896 fps=434 q=-0.0 size=N/A time=00:00:37.37 bitrate=N/A speed=18.1x    frame= 1174 fps=456 q=-0.0 size=N/A time=00:00:48.96 bitrate=N/A speed=  19x    frame= 1409 fps=455 q=-0.0 size=N/A time=00:00:58.76 bitrate=N/A speed=  19x    frame= 1623 fps=449 q=-0.0 size=N/A time=00:01:07.69 bitrate=N/A speed=18.7x    frame= 1766 fps=427 q=-0.0 size=N/A time=00:01:13.65 bitrate=N/A speed=17.8x    frame= 1907 fps=410 q=-0.0 size=N/A time=00:01:19.53 bitrate=N/A speed=17.1x    frame= 2134 fps=413 q=-0.0 size=N/A time=00:01:29.00 bitrate=N/A speed=17.2x    frame= 2366 fps=416 q=-0.0 size=N/A time=00:01:38.68 bitrate=N/A speed=17.4x    frame= 2553 fps=413 q=-0.0 size=N/A time=00:01:46.48 bitrate=N/A speed=17.2x    frame= 2787 fps=415 q=-0.0 size=N/A time=00:01:56.24 bitrate=N/A speed=17.3x    frame= 2990 fps=414 q=-0.0 size=N/A time=00:02:04.70 bitrate=N/A speed=17.3x    frame= 3199 fps=413 q=-0.0 size=N/A time=00:02:13.42 bitrate=N/A speed=17.2x    frame= 3416 fps=414 q=-0.0 size=N/A time=00:02:22.47 bitrate=N/A speed=17.3x    frame= 3688 fps=420 q=-0.0 size=N/A time=00:02:33.86 bitrate=N/A speed=17.5x    frame= 3958 fps=426 q=-0.0 size=N/A time=00:02:45.08 bitrate=N/A speed=17.8x    frame= 4221 fps=430 q=-0.0 size=N/A time=00:02:56.05 bitrate=N/A speed=  18x    frame= 4494 fps=435 q=-0.0 size=N/A time=00:03:07.43 bitrate=N/A speed=18.2x    frame= 4762 fps=439 q=-0.0 size=N/A time=00:03:18.61 bitrate=N/A speed=18.3x    frame= 5034 fps=444 q=-0.0 size=N/A time=00:03:29.95 bitrate=N/A speed=18.5x    frame= 5302 fps=447 q=-0.0 size=N/A time=00:03:41.13 bitrate=N/A speed=18.6x    frame= 5555 fps=448 q=-0.0 size=N/A time=00:03:51.68 bitrate=N/A speed=18.7x    frame= 5778 fps=448 q=-0.0 size=N/A time=00:04:00.99 bitrate=N/A speed=18.7x    frame= 6041 fps=450 q=-0.0 size=N/A time=00:04:11.96 bitrate=N/A speed=18.8x    frame= 6258 fps=449 q=-0.0 size=N/A time=00:04:21.01 bitrate=N/A speed=18.7x    frame= 6517 fps=451 q=-0.0 size=N/A time=00:04:31.81 bitrate=N/A speed=18.8x    frame= 6791 fps=454 q=-0.0 size=N/A time=00:04:43.24 bitrate=N/A speed=18.9x    frame= 7059 fps=456 q=-0.0 size=N/A time=00:04:54.41 bitrate=N/A speed=  19x    frame= 7290 fps=456 q=-0.0 size=N/A time=00:05:04.05 bitrate=N/A speed=  19x    frame= 7553 fps=457 q=-0.0 size=N/A time=00:05:15.02 bitrate=N/A speed=19.1x    frame= 7805 fps=458 q=-0.0 size=N/A time=00:05:25.53 bitrate=N/A speed=19.1x    frame= 8058 fps=459 q=-0.0 size=N/A time=00:05:36.08 bitrate=N/A speed=19.2x    frame= 8302 fps=459 q=-0.0 size=N/A time=00:05:46.26 bitrate=N/A speed=19.2x    frame= 8551 fps=460 q=-0.0 size=N/A time=00:05:56.64 bitrate=N/A speed=19.2x    frame= 8810 fps=461 q=-0.0 size=N/A time=00:06:07.45 bitrate=N/A speed=19.2x    frame= 9072 fps=462 q=-0.0 size=N/A time=00:06:18.37 bitrate=N/A speed=19.3x    frame= 9318 fps=463 q=-0.0 size=N/A time=00:06:28.63 bitrate=N/A speed=19.3x    frame= 9551 fps=462 q=-0.0 size=N/A time=00:06:38.35 bitrate=N/A speed=19.3x    frame= 9811 fps=464 q=-0.0 size=N/A time=00:06:49.20 bitrate=N/A speed=19.3x    frame=10065 fps=464 q=-0.0 size=N/A time=00:06:59.83 bitrate=N/A speed=19.4x    frame=10305 fps=464 q=-0.0 size=N/A time=00:07:09.80 bitrate=N/A speed=19.4x    frame=10551 fps=464 q=-0.0 size=N/A time=00:07:20.06 bitrate=N/A speed=19.4x    frame=10793 fps=465 q=-0.0 size=N/A time=00:07:30.15 bitrate=N/A speed=19.4x    frame=11022 fps=464 q=-0.0 size=N/A time=00:07:39.70 bitrate=N/A speed=19.4x    frame=11266 fps=464 q=-0.0 size=N/A time=00:07:49.88 bitrate=N/A speed=19.4x    frame=11525 fps=465 q=-0.0 size=N/A time=00:08:00.68 bitrate=N/A speed=19.4x    frame=11746 fps=465 q=-0.0 size=N/A time=00:08:09.90 bitrate=N/A speed=19.4x    frame=12012 fps=465 q=-0.0 size=N/A time=00:08:21.00 bitrate=N/A speed=19.4x    frame=12236 fps=465 q=-0.0 size=N/A time=00:08:30.34 bitrate=N/A speed=19.4x    frame=12480 fps=465 q=-0.0 size=N/A time=00:08:40.52 bitrate=N/A speed=19.4x    frame=12707 fps=465 q=-0.0 size=N/A time=00:08:49.98 bitrate=N/A speed=19.4x    frame=12934 fps=464 q=-0.0 size=N/A time=00:08:59.45 bitrate=N/A speed=19.4x    frame=13205 fps=465 q=-0.0 size=N/A time=00:09:10.75 bitrate=N/A speed=19.4x    frame=13477 fps=466 q=-0.0 size=N/A time=00:09:22.10 bitrate=N/A speed=19.4x    frame=13731 fps=467 q=-0.0 size=N/A time=00:09:32.69 bitrate=N/A speed=19.5x    frame=13994 fps=468 q=-0.0 size=N/A time=00:09:43.66 bitrate=N/A speed=19.5x    frame=14250 fps=468 q=-0.0 size=N/A time=00:09:54.34 bitrate=N/A speed=19.5x    frame=14493 fps=468 q=-0.0 size=N/A time=00:10:04.47 bitrate=N/A speed=19.5x    frame=14767 fps=469 q=-0.0 size=N/A time=00:10:15.90 bitrate=N/A speed=19.6x    frame=15024 fps=470 q=-0.0 size=N/A time=00:10:26.62 bitrate=N/A speed=19.6x    frame=15274 fps=470 q=-0.0 size=N/A time=00:10:37.05 bitrate=N/A speed=19.6x    frame=15530 fps=470 q=-0.0 size=N/A time=00:10:47.73 bitrate=N/A speed=19.6x    frame=15767 fps=470 q=-0.0 size=N/A time=00:10:57.61 bitrate=N/A speed=19.6x    frame=16026 fps=471 q=-0.0 size=N/A time=00:11:08.41 bitrate=N/A speed=19.6x    frame=16292 fps=471 q=-0.0 size=N/A time=00:11:19.51 bitrate=N/A speed=19.7x    frame=16558 fps=472 q=-0.0 size=N/A time=00:11:30.60 bitrate=N/A speed=19.7x    frame=16790 fps=472 q=-0.0 size=N/A time=00:11:40.28 bitrate=N/A speed=19.7x    frame=17061 fps=472 q=-0.0 size=N/A time=00:11:51.58 bitrate=N/A speed=19.7x    frame=17342 fps=473 q=-0.0 size=N/A time=00:12:03.30 bitrate=N/A speed=19.7x    frame=17605 fps=474 q=-0.0 size=N/A time=00:12:14.27 bitrate=N/A speed=19.8x    frame=17874 fps=475 q=-0.0 size=N/A time=00:12:25.49 bitrate=N/A speed=19.8x    frame=18120 fps=475 q=-0.0 size=N/A time=00:12:35.75 bitrate=N/A speed=19.8x    frame=18362 fps=474 q=-0.0 size=N/A time=00:12:45.84 bitrate=N/A speed=19.8x    frame=18601 fps=474 q=-0.0 size=N/A time=00:12:55.81 bitrate=N/A speed=19.8x    frame=18831 fps=474 q=-0.0 size=N/A time=00:13:05.40 bitrate=N/A speed=19.8x    frame=19068 fps=474 q=-0.0 size=N/A time=00:13:15.29 bitrate=N/A speed=19.8x    frame=19270 fps=473 q=-0.0 size=N/A time=00:13:23.71 bitrate=N/A speed=19.7x    frame=19458 fps=472 q=-0.0 size=N/A time=00:13:31.56 bitrate=N/A speed=19.7x    frame=19728 fps=472 q=-0.0 size=N/A time=00:13:42.82 bitrate=N/A speed=19.7x    frame=19914 fps=471 q=-0.0 size=N/A time=00:13:50.57 bitrate=N/A speed=19.6x    frame=20156 fps=471 q=-0.0 size=N/A time=00:14:00.67 bitrate=N/A speed=19.6x    frame=20391 fps=470 q=-0.0 size=N/A time=00:14:10.47 bitrate=N/A speed=19.6x    frame=20627 fps=470 q=-0.0 size=N/A time=00:14:20.31 bitrate=N/A speed=19.6x    frame=20901 fps=471 q=-0.0 size=N/A time=00:14:31.74 bitrate=N/A speed=19.6x    frame=21154 fps=471 q=-0.0 size=N/A time=00:14:42.29 bitrate=N/A speed=19.7x    frame=21407 fps=472 q=-0.0 size=N/A time=00:14:52.85 bitrate=N/A speed=19.7x    frame=21665 fps=472 q=-0.0 size=N/A time=00:15:03.61 bitrate=N/A speed=19.7x    frame=21933 fps=472 q=-0.0 size=N/A time=00:15:14.78 bitrate=N/A speed=19.7x    frame=22195 fps=473 q=-0.0 size=N/A time=00:15:25.71 bitrate=N/A speed=19.7x    frame=22440 fps=473 q=-0.0 size=N/A time=00:15:35.93 bitrate=N/A speed=19.7x    frame=22688 fps=473 q=-0.0 size=N/A time=00:15:46.27 bitrate=N/A speed=19.7x    frame=22946 fps=473 q=-0.0 size=N/A time=00:15:57.03 bitrate=N/A speed=19.7x    frame=23189 fps=473 q=-0.0 size=N/A time=00:16:07.17 bitrate=N/A speed=19.7x    frame=23421 fps=473 q=-0.0 size=N/A time=00:16:16.85 bitrate=N/A speed=19.7x    frame=23661 fps=473 q=-0.0 size=N/A time=00:16:26.86 bitrate=N/A speed=19.7x    frame=23886 fps=473 q=-0.0 size=N/A time=00:16:36.24 bitrate=N/A speed=19.7x    frame=24104 fps=472 q=-0.0 size=N/A time=00:16:45.33 bitrate=N/A speed=19.7x    frame=24351 fps=472 q=-0.0 size=N/A time=00:16:55.63 bitrate=N/A speed=19.7x    frame=24588 fps=472 q=-0.0 size=N/A time=00:17:05.52 bitrate=N/A speed=19.7x    frame=24833 fps=472 q=-0.0 size=N/A time=00:17:15.74 bitrate=N/A speed=19.7x    frame=25072 fps=472 q=-0.0 size=N/A time=00:17:25.71 bitrate=N/A speed=19.7x    frame=25315 fps=472 q=-0.0 size=N/A time=00:17:35.84 bitrate=N/A speed=19.7x    frame=25558 fps=472 q=-0.0 size=N/A time=00:17:45.98 bitrate=N/A speed=19.7x    frame=25808 fps=472 q=-0.0 size=N/A time=00:17:56.40 bitrate=N/A speed=19.7x    frame=26075 fps=472 q=-0.0 size=N/A time=00:18:07.54 bitrate=N/A speed=19.7x    frame=26344 fps=473 q=-0.0 size=N/A time=00:18:18.76 bitrate=N/A speed=19.7x    frame=26598 fps=473 q=-0.0 size=N/A time=00:18:29.35 bitrate=N/A speed=19.7x    frame=26835 fps=473 q=-0.0 size=N/A time=00:18:39.24 bitrate=N/A speed=19.7x    frame=27041 fps=472 q=-0.0 size=N/A time=00:18:47.83 bitrate=N/A speed=19.7x    frame=27300 fps=473 q=-0.0 size=N/A time=00:18:58.63 bitrate=N/A speed=19.7x    frame=27543 fps=472 q=-0.0 size=N/A time=00:19:08.77 bitrate=N/A speed=19.7x    frame=27780 fps=472 q=-0.0 size=N/A time=00:19:18.65 bitrate=N/A speed=19.7x    frame=28038 fps=473 q=-0.0 size=N/A time=00:19:29.41 bitrate=N/A speed=19.7x    frame=28303 fps=473 q=-0.0 size=N/A time=00:19:40.47 bitrate=N/A speed=19.7x    frame=28538 fps=473 q=-0.0 size=N/A time=00:19:50.27 bitrate=N/A speed=19.7x    frame=28801 fps=473 q=-0.0 size=N/A time=00:20:01.24 bitrate=N/A speed=19.7x    frame=29043 fps=473 q=-0.0 size=N/A time=00:20:11.33 bitrate=N/A speed=19.7x    frame=29300 fps=473 q=-0.0 size=N/A time=00:20:22.05 bitrate=N/A speed=19.7x    frame=29535 fps=473 q=-0.0 size=N/A time=00:20:31.85 bitrate=N/A speed=19.7x    frame=29782 fps=473 q=-0.0 size=N/A time=00:20:42.15 bitrate=N/A speed=19.7x    frame=30042 fps=473 q=-0.0 size=N/A time=00:20:53.00 bitrate=N/A speed=19.7x    frame=30292 fps=474 q=-0.0 size=N/A time=00:21:03.42 bitrate=N/A speed=19.8x    frame=30557 fps=474 q=-0.0 size=N/A time=00:21:14.48 bitrate=N/A speed=19.8x    frame=30812 fps=474 q=-0.0 size=N/A time=00:21:25.11 bitrate=N/A speed=19.8x    frame=31049 fps=474 q=-0.0 size=N/A time=00:21:35.00 bitrate=N/A speed=19.8x    frame=31281 fps=474 q=-0.0 size=N/A time=00:21:44.67 bitrate=N/A speed=19.8x    frame=31496 fps=473 q=-0.0 size=N/A time=00:21:53.64 bitrate=N/A speed=19.7x    frame=31704 fps=473 q=-0.0 size=N/A time=00:22:02.32 bitrate=N/A speed=19.7x    frame=31963 fps=473 q=-0.0 size=N/A time=00:22:13.12 bitrate=N/A speed=19.7x    frame=32208 fps=473 q=-0.0 size=N/A time=00:22:23.30 bitrate=N/A speed=19.7x    frame=32467 fps=473 q=-0.0 size=N/A time=00:22:34.14 bitrate=N/A speed=19.7x    frame=32714 fps=473 q=-0.0 size=N/A time=00:22:44.44 bitrate=N/A speed=19.7x    frame=32932 fps=473 q=-0.0 size=N/A time=00:22:53.53 bitrate=N/A speed=19.7x    frame=33135 fps=472 q=-0.0 size=N/A time=00:23:02.00 bitrate=N/A speed=19.7x    frame=33338 fps=472 q=-0.0 size=N/A time=00:23:10.47 bitrate=N/A speed=19.7x    frame=33537 fps=471 q=-0.0 size=N/A time=00:23:18.77 bitrate=N/A speed=19.7x    frame=33754 fps=471 q=-0.0 size=N/A time=00:23:27.82 bitrate=N/A speed=19.6x    frame=33921 fps=470 q=-0.0 size=N/A time=00:23:34.78 bitrate=N/A speed=19.6x    frame=34138 fps=469 q=-0.0 size=N/A time=00:23:43.83 bitrate=N/A speed=19.6x    frame=34332 fps=469 q=-0.0 size=N/A time=00:23:51.93 bitrate=N/A speed=19.6x    [Parsed_psnr_10 @ 00000226fdb26480] PSNR y:49.525743 u:49.706878 v:50.240610 average:49.667454 min:42.913296 max:inf
[out#0/null @ 00000226fb1b4e00] video:14800KiB audio:269388KiB subtitle:0KiB other streams:0KiB global headers:0KiB muxing overhead: unknown
frame=34444 fps=469 q=-0.0 Lsize=N/A time=00:23:56.60 bitrate=N/A speed=19.5x    
